<?xml version="1.0" encoding="utf-8"?>
<!-- Generator: Adobe Illustrator 26.0.1, SVG Export Plug-In . SVG Version: 6.00 Build 0)  -->
<svg version="1.1" id="Layer_1" xmlns="http://www.w3.org/2000/svg" xmlns:xlink="http://www.w3.org/1999/xlink" x="0px" y="0px"
	 viewBox="0 0 841.89 400.28" style="enable-background:new 0 0 841.89 400.28;" xml:space="preserve">
<style type="text/css">
	.st0{fill:none;stroke:#39429A;stroke-width:0.5;stroke-miterlimit:10;}
	.st1{fill:#178A43;}
	.st2{fill:none;stroke:#231F20;stroke-width:0.5;stroke-miterlimit:10;}
	.st3{fill:#39429A;}
	.st4{fill:#010101;}
	.st5{font-family:'Swiss721BT-Heavy';}
	.st6{font-size:38.7327px;}
	.st7{font-size:21.4968px;}
	.st8{letter-spacing:4.62;}
</style>
<g>
	<g>
		<g>
			<path class="st0" d="M116.44,71.28"/>
			<g>
				<path class="st1" d="M180.78,277.71l11.07-0.18c-0.46-0.84-0.95-1.69-1.45-2.55c-0.57-0.97-1.13-1.92-1.7-2.83
					c-0.85,0.88-1.92,1.86-3.22,2.83C183.78,276.25,182.14,277.12,180.78,277.71z"/>
			</g>
			<path class="st1" d="M223.34,123.03c-21.32-24.02-52.67-28.19-65.59-29.14c-0.58-0.26-0.86-0.51-0.85-0.75
				c0.05-1.09,6.26-1.91,18.59-2.44c0.33-0.87,0.9-2.11,1.84-3.46c1.17-1.66,2.1-2.98,3.23-3.05c1.53-0.08,3.28,2.2,4.17,5.56
				c4.59-0.43,10.16-0.59,16.47-0.01c5.72,0.53,10.71,1.55,14.86,2.66c0.33-3.09,2.16-5.07,3.42-4.97c1.29,0.1,2.91,2.48,2.54,5.8
				c0.58,0.64,1.29,1.31,2.15,1.99c1.51,1.2,2.97,1.96,4.15,2.45c0.2-0.45,0.82-1.72,1.99-1.98c1.37-0.31,2.69,0.96,3.67,1.91
				c0.64,0.59,1.04,1.17,1.34,1.57c5.4,2.51,10.81,5.03,16.23,7.56c-4.06-6.12-10.51-14.54-20.1-22.75
				c-10.82-9.26-26.16-22.43-47.52-22.55c-19.54-0.11-34,10.75-39.92,15.85c-0.31-0.16-0.71-0.43-0.99-0.9
				c-1.26-2.1,1.44-5.84,2.55-7.4c3.01-4.26,6.83-10.22,11.79-18.31c-4.22-3.48-13.84-10.43-27.92-12.45
				c-20.45-2.93-35.79,6.6-39.76,9.25c5.3,4.55,9.53,8.32,12.54,11.04c2.45,2.21,0.96,0.88,4.34,3.95c5.88,5.34,7.75,6.91,9.85,9.83
				c1.29,1.79,2.16,3.39,2.69,4.43c-0.05,0.16-0.15,0.4-0.38,0.59c-1.29,1.09-4.87-1.21-5.85-1.82
				c-4.81-3.01-29.91-17.13-45.27-19.81c-14.64-2.55-27.05,4.11-29.58,5.47c-22.13,11.9-26.44,37.71-27.04,41.6
				c1.99-0.48,4.87-1.37,8-3.12c4.37-2.43,6.49-5.04,8.48-6.86c4.04-3.68,9.36-4.97,20.03-7.57c5.51-1.35,13.1-2.81,22.35-3.4
				c10.39,4.18,17.92,7.13,22.35,8.59c1.44,0.47,4.99,1.58,9.01,4.23c1.15,0.76,2.05,1.45,2.59,1.89c0.13,0.22,0.31,0.55,0.18,0.85
				c-0.33,0.9-2.96,0.69-3.48,0.66c-5.77-0.37-38.42,3.13-47.08,4.91c-21.8,4.47-34.57,27.19-37.04,31.57
				c-16.65,29.63-4.38,60.71-2.58,65.04c10.86-10.21,18.82-18.39,22.45-22.55c1.79-2.06,3.57-4.34,5.29-7.36
				c1.3-2.33,2.14-4.34,2.64-5.66c-1.89-1.23-3.32-2.78-3.01-3.85c0.37-1.31,3.28-2.15,7.26-1.34c3.04-2.61,6.06-5.23,9.1-7.85
				c-5.31-4.94-7.64-7.89-7.02-8.83c0.72-1.09,5.52,0.55,14.38,4.94c0.39-0.06,0.92-0.23,1.35-0.65c0.8-0.78,0.65-1.96,0.64-3.89
				c-0.02-2.85-0.05-4.27,0.5-4.68c0.59-0.43,1.99-0.17,5.5,2.65c3.79-3.08,8.87-6.64,15.27-9.81c5.9-2.92,11.35-4.75,15.83-5.9
				c-1.41-1.35-2-2.21-1.79-2.56c0.29-0.48,2.07-0.08,5.31,1.21c5.5-2.67,11.01-5.35,16.51-8.02c0.5,7.73,1.39,19.32,3.03,33.36
				c1.87,16.05,2.89,19.6,5.77,39.11c-3.19-1.88-10.53-5.5-20.06-4.49c-14.24,1.51-22.06,12.16-23.27,13.88
				c-0.24,0.2-0.56,0.26-0.82,0.13c-0.33-0.16-0.51-0.64-0.31-1.07c-0.23-1.14-0.38-2.61-0.24-4.29c0.33-4.01,2.16-6.9,3.21-8.29
				c-0.31-0.54-0.78-1.25-1.52-1.94c-4.64-4.38-13.31-1.88-17.36-0.71c-3.32,0.96-8.75,3.04-14.38,7.88c-0.13,0.15-0.34,0.4-0.5,0.8
				c-0.12,0.34-0.15,0.65-0.13,0.83c2.78,0.51,6.87,1.58,11.29,4.09c3.94,2.22,6.76,4.78,8.59,6.74c-0.17,0.16-0.67,0.54-1.42,0.61
				c-0.65,0.06-1.15-0.13-1.36-0.24c-18.89-8.91-38.28-4.78-45.95,6.75c-4.92,7.41-3.94,16.21-3.15,20.33
				c0.99-1.34,9.26-12.22,18.08-15.9c3.31-1.37,6.34-1.83,6.34-1.83c3.52-0.53,6.01-0.11,8.97,0.18c2.86,0.28,7.03,0.54,12.26,0.28
				c0.05,0.06,0.28,0.39,0.22,0.83c-0.06,0.48-0.43,0.74-0.5,0.78c-0.97,0.4-2.48,1.03-4.33,1.79c-6.27,2.54-10.76,4.2-11.62,4.53
				c-5.7,2.17-15.5,8.76-19.99,16.04c-6.79,10.98-3.99,27.63,5.37,42.13c0.92-3.32,2.42-7.48,5-11.9c1.55-2.66,3.19-4.91,4.71-6.75
				c-0.24-0.17-2.37-1.72-2.21-3.91c0.05-0.85,0.43-1.46,0.66-1.84c0.2-0.34,0.86-1.31,3.95-2.83c0.69-0.32,1.66-0.76,2.87-1.23
				c0.04-0.54,0.06-1.07,0.1-1.6c-0.44-0.16-4.29-1.57-4.15-2.78c0.11-0.96,2.69-1.63,6.32-1.69c1.31-1.64,2.72-3.31,4.25-4.96
				c6.77-7.42,13.88-13.08,20.45-17.41c0.02-0.02,0.6-0.5,1.25-0.27c0.31,0.11,0.48,0.32,0.56,0.43l22.83,56.74h20.19
				c-3.31-4.65-6.61-9.31-9.92-13.99c-1.4,1.26-2.76,1.85-3.18,1.5c-0.43-0.37-0.03-1.85,1.15-3.51c-2.78-4.18-5.57-8.72-8.28-13.66
				c-6.06-11.05-10.4-21.59-13.56-30.98c1.07-0.37,2.93-0.87,5.29-0.66c3.03,0.27,5.16,1.58,6.13,2.27c0.01-0.24,0.24-2.4,1.64-2.98
				c0.97-0.38,1.98,0.17,3.47,0.99c1.25,0.69,2.15,1.44,2.71,1.99c1.24,0.08,3.13,0.28,5.35,0.85c2.26,0.56,5.3,1.6,13.94,6.86
				c1.68,1.03,3.96,2.44,6.64,4.21c0.69,6.49,1.29,13.3,1.78,20.61c0.75,11.15,1.04,20.35,1.17,26.45c5.73,0.05,11.55,0.05,17.43,0
				c4.59-0.04,9.13-0.11,13.62-0.2c1.3-1.51,2.85-3.1,4.66-4.71c2.98-2.64,5.9-4.59,8.43-6.04c-4.05-8.85-8.1-17.7-12.13-26.55
				c-2.41,2.05-6,4.41-10.71,5.48c-1.74,0.39-3.24,0.72-3.57,0.17c-0.74-1.21,4.47-5.86,11.73-11.56
				c-1.68-3.94-3.34-8.13-4.93-12.56c-1.26-3.53-2.41-6.97-3.42-10.29c-11.29,5.91-13.37,6.17-13.66,5.74
				c-0.28-0.44,0.83-2.23,11.08-10.05c-1.93-6.26-3.75-12.78-5.46-19.57c-0.67-2.69-1.3-5.36-1.91-8c-5.46,3.12-8.55,4.25-9.25,3.41
				c-0.81-0.98,1.58-4.63,7.18-10.93c-1.14-6.36-2.3-12.72-3.45-19.09c-1.99,0.32-9.92,1.53-10.26,0.28
				c-0.34-1.24,7.14-4.34,8.98-5.08c-0.94-11.04-1.88-22.06-2.82-33.1c0.15-0.08,0.39-0.2,0.7-0.31c3.56-1.25,7.31,1.52,11.25,3.96
				c2.51,1.56,6.18,3.64,11.07,5.78c2.38-7.08,3.85-7.84,4.58-7.75c2.06,0.2,2.96,7.56,3.35,12.19c5.96,0.47,9.97,2.28,12.37,3.67
				c1.68,0.99,4.26,2.36,6.88,5c3.15,3.2,3.67,5.42,6.88,6.9c2.16,0.99,2.96,0.45,4.53,1.51c2.48,1.64,3.29,4.81,3.59,7.35
				c0.45,0.88,1.14,1.96,2.12,3.07c1.29,1.44,2.62,2.38,3.63,2.97c0.6-0.66,5.93-6.33,7.73-5.23c1.39,0.83,0.45,5.5-2.07,11.47
				c0.69,1.35,1.37,2.69,2.06,4.04c0.65-0.18,2.5-0.65,4.07,0.29c2.2,1.34,3.09,4.94,1.41,8.5c7.18,8.69,14.34,17.36,21.51,26.05
				c0.86-13.07,0.47-36.65-12.07-61.52C234.2,138.51,230.25,130.81,223.34,123.03z M126.1,206.03c-11.21-3.35-21.21-2.96-27.95-2.05
				c-0.05-0.26-0.1-0.65-0.02-1.09c0.38-2.11,3.24-3.48,8.97-5.04c5.19-1.42,8.56-2.33,14.06-2.71c3.2-0.23,7.54-0.31,12.72,0.28
				c0.7,4.86,1.39,9.63,2.03,14.44C133.04,208.47,129.79,207.12,126.1,206.03z"/>
			<path class="st2" d="M89.21,181.95"/>
		</g>
		<g>
			<path class="st3" d="M275.94,196.95c4.8-7.28,12.51-11.43,20.97-11.43c6.59,0,12.98,2.65,17.87,7.56
				c4.8,4.82,7.43,11.14,7.43,17.85c0,6.8-2.64,13.04-7.43,17.85c-4.8,4.82-11.2,7.46-17.87,7.46c-6.77,0-12.98-2.65-17.78-7.46
				c-4.8-4.81-7.43-11.06-7.43-17.85C271.71,206.01,273.12,201.19,275.94,196.95z M296.92,217.45c3.57,0,6.59-2.93,6.59-6.51
				c0-3.6-3.01-6.61-6.59-6.61s-6.49,2.93-6.49,6.61C290.43,214.52,293.35,217.45,296.92,217.45z"/>
			<path class="st3" d="M416.2,236.25c-4.89,0-9.79-1.51-14.02-4.35c-7.15-4.73-11.2-12.47-11.2-20.97c0-6.61,2.64-13.04,7.43-17.85
				c4.89-4.91,11.2-7.56,17.78-7.56c14.2,0,25.3,10.58,25.3,27.21c0,0.38,0,0.66,0,1.04h-26.43c-1.69,0-2.44-1.42-2.44-4.45
				c0-3.03,0.75-4.53,2.44-4.53h8c0-0.1,0-0.1,0-0.19c0-3.21-2.44-5.2-6.21-5.2c-4.61,0-8,3.97-8,10.68c0,7.08,3.1,10.77,7.62,10.77
				c2.16,0,4.8-1.32,5.84-3.31l10.35,12.76C427.58,234.35,422.32,236.25,416.2,236.25z"/>
			<path class="st3" d="M465.87,233.41h-18.35v-23.43c0-8.88,1.03-14.92,6.49-20.32c3.57-3.59,8.66-5.67,13.36-5.67
				c2.35,0,4.61,0.19,6.77,0.57v19.37c-1.31-0.18-2.35-0.38-2.92-0.38c-4.61,0-5.36,3.21-5.36,9.54V233.41z"/>
			<path class="st3" d="M495.4,166.24v37.89c0,8.03,1.31,12.56,7.15,12.56c3.77,0,6.97-3.21,6.97-7.08c0-4.16-3.1-7.28-6.97-7.28
				c-1.31,0-2.54,0.47-3.95,1.04v-19.09c1.51-0.1,2.92-0.28,4.23-0.28c13.74,0,24.84,11.24,24.84,25.6c0,6.71-2.54,13.04-7.15,17.77
				c-4.8,4.91-11.1,7.56-17.78,7.56c-9.87,0-18.43-5.48-22.3-14.27c-2.64-6.05-2.92-11.43-2.92-16.62c0-1.23,0-2.45,0-3.6v-34.2
				h17.87V166.24z"/>
			<path class="st3" d="M565.3,232.93v-19.27c0-7.84-1.31-12.29-7.15-12.29c-3.85,0-6.97,3.21-6.97,6.99c0,4.06,3.01,6.99,6.97,6.99
				c1.03,0,2.16-0.28,3.57-0.85v18.7c-1.41,0.1-2.72,0.19-3.85,0.19c-13.82,0-24.74-10.96-24.74-25.03c0-6.61,2.54-12.84,7.15-17.47
				c4.8-4.81,11-7.36,17.69-7.36c9.97,0,18.35,5.29,22.3,13.99c2.64,5.95,2.92,11.14,2.92,16.25c0,1.13,0,2.36,0,3.5v15.69H565.3
				V232.93z"/>
			<path class="st3" d="M633.78,183.6v41.47c0,16.74-12.7,27.96-28.88,27.96c-2.44,0-4.71-0.37-7.05-1.11v-15.91
				c1.79,0.92,3.39,1.29,5.27,1.29c7.33,0,12.23-4.05,12.79-10.94c-2.92,2.76-6.02,4.05-9.69,4.05c-9.5,0-15.61-6.34-15.61-18.77
				V183.6h18.35v21.98c0,4.05,0.47,6.34,3.48,6.34c2.92,0,3.48-2.3,3.48-6.34V183.6L633.78,183.6L633.78,183.6z"/>
			<path class="st3" d="M353.21,168.13c-2.07,0.15-16.72,1.42-22.59,12.33c-0.82,1.53-1.62,3.5-2.03,5.98
				c-0.1,15.66-0.19,31.32-0.28,46.98h17.36v-17.55l7.55-0.19c0-6.17,0-12.34,0-18.52c-2.57,0.01-5.16,0.01-7.73,0.02
				c-0.08-0.19-0.17-0.45-0.26-0.76c-0.04-0.17-0.2-0.81-0.22-1.52c-0.01-1.11,0.37-1.97,0.57-2.43c0.11-0.25,0.62-1.37,1.84-2.55
				c2.05-1.97,4.6-2.67,5.8-2.93C353.21,180.7,353.21,174.41,353.21,168.13z"/>
			<path class="st3" d="M386.61,168.13c-2.07,0.15-16.72,1.42-22.59,12.33c-0.82,1.53-1.62,3.5-2.03,5.98
				c-0.1,15.66-0.19,31.32-0.28,46.98h17.36v-17.55l7.55-0.19c0-6.17,0-12.34,0-18.52c-2.57,0.01-5.16,0.01-7.73,0.02
				c-0.08-0.19-0.17-0.45-0.26-0.76c-0.04-0.17-0.2-0.81-0.22-1.52c-0.01-1.11,0.37-1.97,0.57-2.43c0.11-0.25,0.62-1.37,1.84-2.55
				c2.05-1.97,4.6-2.67,5.8-2.93C386.61,180.7,386.61,174.41,386.61,168.13z"/>
		</g>
		<text transform="matrix(1 0 0 1 639.1719 236.2451)" class="st4 st5 st6">.LK</text>
		<path class="st3" d="M483.21,277.18c29.16,9.3,72.41,19.13,124.91,16.98c87.51-3.59,151.73-38.45,182.26-57.91
			c-21.72,24.35-58.1,58.98-111.7,86.22c-76.65,38.95-147.75,42.1-184.16,41.13c-4.74-9.71-10.7-24.86-12.96-44.26
			C479.55,301.89,481.24,287.25,483.21,277.18z"/>
		<path class="st3" d="M809.44,185.3c3.14-6.01,6.29-12.02,9.43-18.02c1.46-2.37,4.51-3.15,6.79-1.88c2.45,1.37,3.34,4.73,1.7,7.27
			c-2.55,5.91-5.09,11.82-7.64,17.73c1.46,3.09,2.97,6.2,4.53,9.33c5.71,11.46,11.63,22.23,17.64,32.35
			c-5.19-3.77-10.55-7.86-16.01-12.3c-4.99-4.05-9.66-8.08-14.04-12.02c-0.9,1.56-1.8,3.13-2.69,4.74
			c-2.89,5.19-5.56,10.31-8.02,15.33c1.09,2.96,2.19,5.91,3.27,8.87c-3.2-2.34-6.41-4.68-9.6-7.02c-3.76-0.54-7.52-1.08-11.26-1.62
			c2.72-0.99,5.44-1.98,8.16-2.97c1.84-3.93,3.67-7.91,5.49-11.96c1.53-3.39,3.04-6.77,4.5-10.12c-5.61-0.89-11.38-1.93-17.31-3.11
			c-7.44-1.49-14.57-3.11-21.37-4.81c12.15-1.65,24.96-4.09,38.28-7.57C804.07,186.82,806.77,186.06,809.44,185.3z"/>
	</g>
	<text transform="matrix(1.3 0 0 1 259.4053 260.165)" class="st4 st5 st7 st8">Lorem ipsum...</text>
</g>
</svg>
